<?xml version="1.0" encoding="utf-8"?>
<!-- Generator: Adobe Illustrator 16.0.0, SVG Export Plug-In . SVG Version: 6.00 Build 0)  -->
<!DOCTYPE svg PUBLIC "-//W3C//DTD SVG 1.1//EN" "http://www.w3.org/Graphics/SVG/1.1/DTD/svg11.dtd">
<svg version="1.1" id="Layer_1" xmlns="http://www.w3.org/2000/svg" xmlns:xlink="http://www.w3.org/1999/xlink" x="0px" y="0px"
	 width="471px" height="250px" viewBox="0 0 471 250" enable-background="new 0 0 471 250" xml:space="preserve">
<g fill="#ffffff">
	<path d="M104.733,171.826v-20.829h13.759v2.348h-11.119v6.952h9.358v2.2h-9.358v9.329H104.733z"/>
	<path d="M150.644,169.479v2.347h-14.141v-20.829h13.877v2.348h-11.236v6.747h9.769v2.2h-9.769v7.188H150.644z"/>
	<path d="M181.153,155.368c-0.234-0.273-0.548-0.537-0.938-0.792c-0.392-0.254-0.831-0.483-1.32-0.689
		c-0.489-0.205-1.022-0.371-1.599-0.498c-0.577-0.127-1.179-0.191-1.805-0.191c-1.623,0-2.812,0.304-3.563,0.91
		c-0.754,0.606-1.13,1.438-1.13,2.493c0,0.567,0.107,1.037,0.322,1.408c0.216,0.372,0.553,0.689,1.013,0.953
		c0.459,0.265,1.031,0.494,1.716,0.689c0.685,0.196,1.496,0.401,2.436,0.616c1.075,0.234,2.048,0.504,2.919,0.807
		c0.869,0.304,1.613,0.68,2.229,1.13c0.615,0.45,1.085,0.997,1.408,1.643c0.322,0.646,0.483,1.438,0.483,2.376
		c0,0.998-0.195,1.863-0.587,2.597c-0.391,0.733-0.924,1.34-1.599,1.818c-0.675,0.479-1.472,0.832-2.391,1.057
		c-0.92,0.225-1.917,0.337-2.992,0.337c-1.604,0-3.124-0.249-4.562-0.748c-1.438-0.498-2.743-1.227-3.917-2.186l1.262-2.229
		c0.313,0.333,0.719,0.665,1.218,0.998c0.498,0.332,1.065,0.63,1.701,0.895c0.635,0.264,1.32,0.479,2.054,0.646
		s1.5,0.249,2.303,0.249c1.486,0,2.641-0.264,3.462-0.792s1.231-1.32,1.231-2.376c0-0.587-0.132-1.081-0.396-1.481
		c-0.265-0.401-0.65-0.748-1.159-1.042c-0.509-0.293-1.14-0.552-1.892-0.777c-0.754-0.225-1.609-0.455-2.567-0.689
		c-1.056-0.254-1.985-0.528-2.787-0.821s-1.472-0.646-2.01-1.056c-0.538-0.411-0.943-0.91-1.217-1.496
		c-0.274-0.587-0.411-1.291-0.411-2.112c0-0.998,0.186-1.878,0.558-2.641c0.371-0.763,0.89-1.408,1.555-1.937
		c0.665-0.527,1.457-0.924,2.376-1.188c0.92-0.265,1.917-0.396,2.993-0.396c1.407,0,2.679,0.216,3.813,0.646
		c1.134,0.431,2.142,1.008,3.021,1.73L181.153,155.368z"/>
	<path d="M216.474,153.345h-7.188v18.481h-2.64v-18.481h-7.188v-2.348h17.015V153.345z"/>
	<path d="M234.134,171.826v-20.829h2.641v20.829H234.134z"/>
	<path d="M257.017,150.997l6.895,17.514l6.864-17.514h2.787l-8.508,20.829h-2.288l-8.537-20.829H257.017z"/>
	<path d="M295.682,150.997h2.229l8.508,20.829h-2.816l-2.464-6.102h-8.742l-2.436,6.102h-2.816L295.682,150.997z M300.552,163.671
		l-3.755-9.622l-3.873,9.622H300.552z"/>
	<path d="M323.873,171.826v-20.829h2.641v18.482h11.617v2.347H323.873z"/>
	<path d="M367.907,155.368c-0.234-0.273-0.548-0.537-0.938-0.792c-0.392-0.254-0.831-0.483-1.32-0.689
		c-0.489-0.205-1.022-0.371-1.599-0.498c-0.577-0.127-1.179-0.191-1.805-0.191c-1.623,0-2.812,0.304-3.563,0.91
		c-0.754,0.606-1.13,1.438-1.13,2.493c0,0.567,0.107,1.037,0.322,1.408c0.216,0.372,0.553,0.689,1.013,0.953
		c0.459,0.265,1.031,0.494,1.716,0.689c0.685,0.196,1.496,0.401,2.436,0.616c1.075,0.234,2.048,0.504,2.919,0.807
		c0.869,0.304,1.613,0.68,2.229,1.13c0.615,0.45,1.085,0.997,1.408,1.643c0.322,0.646,0.483,1.438,0.483,2.376
		c0,0.998-0.195,1.863-0.587,2.597c-0.391,0.733-0.924,1.34-1.599,1.818c-0.675,0.479-1.472,0.832-2.391,1.057
		c-0.92,0.225-1.917,0.337-2.992,0.337c-1.604,0-3.124-0.249-4.562-0.748c-1.438-0.498-2.743-1.227-3.917-2.186l1.262-2.229
		c0.313,0.333,0.719,0.665,1.218,0.998c0.498,0.332,1.065,0.63,1.701,0.895c0.635,0.264,1.32,0.479,2.054,0.646
		s1.5,0.249,2.303,0.249c1.486,0,2.641-0.264,3.462-0.792s1.231-1.32,1.231-2.376c0-0.587-0.132-1.081-0.396-1.481
		c-0.265-0.401-0.65-0.748-1.159-1.042c-0.509-0.293-1.14-0.552-1.892-0.777c-0.754-0.225-1.609-0.455-2.567-0.689
		c-1.056-0.254-1.985-0.528-2.787-0.821s-1.472-0.646-2.01-1.056c-0.538-0.411-0.943-0.91-1.217-1.496
		c-0.274-0.587-0.411-1.291-0.411-2.112c0-0.998,0.186-1.878,0.558-2.641c0.371-0.763,0.89-1.408,1.555-1.937
		c0.665-0.527,1.457-0.924,2.376-1.188c0.92-0.265,1.917-0.396,2.993-0.396c1.407,0,2.679,0.216,3.813,0.646
		c1.134,0.431,2.142,1.008,3.021,1.73L367.907,155.368z"/>
</g>
<g fill="#ffffff">
	<path d="M43.971,111.838c0-3.269,0.615-6.487,1.848-9.656c1.232-3.168,3.029-6.009,5.394-8.523c2.363-2.515,5.23-4.552,8.6-6.11
		c3.369-1.559,7.216-2.339,11.542-2.339c5.179,0,9.667,1.069,13.465,3.206c3.796,2.138,6.625,4.967,8.486,8.486l-11.24,7.996
		c-0.503-1.307-1.169-2.388-1.999-3.243c-0.83-0.854-1.748-1.534-2.753-2.037c-1.007-0.502-2.05-0.854-3.131-1.056
		c-1.082-0.201-2.125-0.302-3.13-0.302c-2.112,0-3.936,0.414-5.469,1.244c-1.535,0.83-2.791,1.912-3.772,3.244
		c-0.98,1.333-1.71,2.842-2.188,4.526c-0.479,1.686-0.717,3.356-0.717,5.016c0,1.861,0.276,3.647,0.83,5.356
		c0.553,1.71,1.358,3.219,2.414,4.526c1.056,1.309,2.35,2.352,3.885,3.131c1.534,0.78,3.255,1.169,5.167,1.169
		c1.005,0,2.037-0.113,3.093-0.34s2.075-0.604,3.055-1.131c0.98-0.528,1.86-1.207,2.64-2.037c0.779-0.83,1.396-1.849,1.848-3.056
		l11.995,7.167c-0.805,1.961-2.025,3.722-3.659,5.28c-1.635,1.56-3.496,2.866-5.583,3.923c-2.087,1.056-4.326,1.861-6.713,2.414
		c-2.39,0.553-4.715,0.829-6.978,0.829c-3.974,0-7.607-0.792-10.9-2.376c-3.294-1.584-6.136-3.684-8.524-6.299
		c-2.389-2.614-4.237-5.582-5.544-8.901C44.624,118.627,43.971,115.259,43.971,111.838z"/>
	<path d="M112.091,85.511h13.428l18.558,53.56h-14.938l-3.243-10.485h-14.257l-3.168,10.485H93.458L112.091,85.511z
		 M123.557,118.778l-4.752-16.597l-4.979,16.597H123.557z"/>
	<path d="M241.84,85.511v53.56h-14.71v-20.972h-17.954v20.972h-14.71v-53.56h14.71v19.765h17.954V85.511H241.84z"/>
	<path d="M251.043,139.07v-53.56h14.71v40.735h24.291v12.824H251.043z"/>
	<path d="M333.343,126.246v12.824h-38.171v-53.56h37.492v12.824h-22.782v7.544h19.463v11.918h-19.463v8.449H333.343z"/>
	<path d="M186.847,116.289c-0.754-1.76-1.836-3.256-3.243-4.489c-1.409-1.231-3.106-2.301-5.092-3.206
		c-1.987-0.905-4.213-1.734-6.677-2.489c-1.56-0.502-2.955-0.93-4.187-1.282c-1.232-0.352-2.276-0.717-3.131-1.094
		c-0.855-0.377-1.509-0.792-1.961-1.245c-0.453-0.452-0.679-1.029-0.679-1.734c0-0.955,0.389-1.634,1.169-2.037
		c0.779-0.401,1.822-0.604,3.131-0.604c1.608,0,3.255,0.264,4.94,0.792c1.685,0.528,3.206,1.094,4.564,1.697
		c1.608,0.705,3.168,1.509,4.677,2.414l6.337-12.146c-1.207-0.604-2.565-1.244-4.074-1.923c-1.508-0.68-3.13-1.308-4.865-1.887
		c-1.735-0.577-3.533-1.056-5.394-1.433c-0.881-0.179-1.774-0.312-2.678-0.405V79.6h-4.816v5.523
		c-2.023,0.135-3.965,0.499-5.82,1.104c-2.39,0.78-4.515,1.924-6.374,3.433c-1.861,1.508-3.333,3.395-4.413,5.657
		c-1.082,2.263-1.622,4.879-1.622,7.846c0,1.961,0.264,3.696,0.792,5.205s1.345,2.854,2.451,4.035
		c1.106,1.183,2.515,2.238,4.225,3.169c1.709,0.931,3.746,1.799,6.11,2.603c1.609,0.554,3.131,1.031,4.564,1.433
		c1.433,0.403,2.702,0.806,3.81,1.207c1.105,0.403,1.973,0.868,2.603,1.396c0.628,0.528,0.942,1.17,0.942,1.924
		c0,0.705-0.314,1.271-0.942,1.697c-0.63,0.428-1.748,0.642-3.357,0.642c-2.112,0-4.187-0.302-6.224-0.905
		c-2.036-0.604-3.86-1.282-5.469-2.037c-1.912-0.854-3.747-1.835-5.507-2.941l-6.337,12.899c1.609,0.956,3.357,1.811,5.243,2.564
		c1.886,0.755,3.847,1.408,5.884,1.962s4.085,0.98,6.148,1.282c1.113,0.163,2.209,0.273,3.293,0.349v5.561h4.816v-5.531
		c1.766-0.117,3.526-0.378,5.28-0.793c2.438-0.578,4.626-1.521,6.563-2.829c1.936-1.307,3.495-3.055,4.678-5.242
		c1.181-2.188,1.772-4.891,1.772-8.11C187.979,120.187,187.602,118.05,186.847,116.289z"/>
	<path d="M379.131,116.289c-0.754-1.76-1.836-3.256-3.243-4.489c-1.409-1.231-3.106-2.301-5.092-3.206
		c-1.987-0.905-4.213-1.734-6.677-2.489c-1.56-0.502-2.955-0.93-4.187-1.282c-1.232-0.352-2.276-0.717-3.131-1.094
		c-0.855-0.377-1.509-0.792-1.961-1.245c-0.453-0.452-0.679-1.029-0.679-1.734c0-0.955,0.389-1.634,1.169-2.037
		c0.779-0.401,1.822-0.604,3.131-0.604c1.608,0,3.255,0.264,4.94,0.792c1.685,0.528,3.206,1.094,4.564,1.697
		c1.608,0.705,3.168,1.509,4.677,2.414l6.337-12.146c-1.207-0.604-2.565-1.244-4.074-1.923c-1.508-0.68-3.13-1.308-4.865-1.887
		c-1.735-0.577-3.533-1.056-5.394-1.433c-1.249-0.253-2.521-0.414-3.815-0.497V79.6h-4.816v5.637
		c-1.614,0.183-3.18,0.501-4.683,0.991c-2.39,0.78-4.515,1.924-6.374,3.433c-1.861,1.508-3.333,3.395-4.413,5.657
		c-1.082,2.263-1.622,4.879-1.622,7.846c0,1.961,0.264,3.696,0.792,5.205s1.345,2.854,2.451,4.035
		c1.106,1.183,2.515,2.238,4.225,3.169c1.709,0.931,3.746,1.799,6.11,2.603c1.609,0.554,3.131,1.031,4.564,1.433
		c1.433,0.403,2.702,0.806,3.81,1.207c1.105,0.403,1.973,0.868,2.603,1.396c0.628,0.528,0.942,1.17,0.942,1.924
		c0,0.705-0.314,1.271-0.942,1.697c-0.63,0.428-1.748,0.642-3.357,0.642c-2.112,0-4.187-0.302-6.224-0.905
		c-2.036-0.604-3.86-1.282-5.469-2.037c-1.912-0.854-3.747-1.835-5.507-2.941l-6.337,12.899c1.609,0.956,3.357,1.811,5.243,2.564
		c1.886,0.755,3.847,1.408,5.884,1.962s4.085,0.98,6.148,1.282c0.728,0.106,1.44,0.171,2.155,0.239v5.67h4.816v-5.484
		c2.148-0.064,4.287-0.336,6.418-0.84c2.438-0.578,4.626-1.521,6.563-2.829c1.936-1.307,3.495-3.055,4.678-5.242
		c1.181-2.188,1.772-4.891,1.772-8.11C380.263,120.187,379.886,118.05,379.131,116.289z"/>
	<path d="M425.675,116.289c-0.754-1.76-1.836-3.256-3.243-4.489c-1.409-1.231-3.106-2.301-5.092-3.206
		c-1.987-0.905-4.213-1.734-6.677-2.489c-1.56-0.502-2.955-0.93-4.187-1.282c-1.232-0.352-2.276-0.717-3.131-1.094
		c-0.855-0.377-1.509-0.792-1.961-1.245c-0.453-0.452-0.679-1.029-0.679-1.734c0-0.955,0.389-1.634,1.169-2.037
		c0.779-0.401,1.822-0.604,3.131-0.604c1.608,0,3.255,0.264,4.94,0.792c1.685,0.528,3.206,1.094,4.564,1.697
		c1.608,0.705,3.168,1.509,4.677,2.414l6.337-12.146c-1.207-0.604-2.565-1.244-4.074-1.923c-1.508-0.68-3.13-1.308-4.865-1.887
		c-1.735-0.577-3.533-1.056-5.394-1.433c-1.249-0.253-2.521-0.414-3.815-0.497V79.6h-4.816v5.637
		c-1.614,0.183-3.179,0.501-4.683,0.991c-2.39,0.78-4.515,1.924-6.374,3.433c-1.861,1.508-3.333,3.395-4.413,5.657
		c-1.082,2.263-1.622,4.879-1.622,7.846c0,1.961,0.264,3.696,0.792,5.205s1.345,2.854,2.451,4.035
		c1.106,1.183,2.515,2.238,4.225,3.169c1.709,0.931,3.746,1.799,6.11,2.603c1.609,0.554,3.131,1.031,4.564,1.433
		c1.433,0.403,2.702,0.806,3.81,1.207c1.105,0.403,1.973,0.868,2.603,1.396c0.628,0.528,0.942,1.17,0.942,1.924
		c0,0.705-0.314,1.271-0.942,1.697c-0.63,0.428-1.748,0.642-3.357,0.642c-2.112,0-4.187-0.302-6.224-0.905
		c-2.036-0.604-3.86-1.282-5.469-2.037c-1.912-0.854-3.747-1.835-5.507-2.941l-6.337,12.899c1.609,0.956,3.357,1.811,5.243,2.564
		c1.886,0.755,3.847,1.408,5.884,1.962s4.085,0.98,6.148,1.282c0.728,0.106,1.44,0.171,2.155,0.239v5.67h4.816v-5.484
		c2.148-0.064,4.287-0.336,6.418-0.84c2.438-0.578,4.626-1.521,6.563-2.829c1.936-1.307,3.495-3.055,4.678-5.242
		c1.181-2.188,1.772-4.891,1.772-8.11C426.807,120.187,426.43,118.05,425.675,116.289z"/>
</g>
</svg>
