<?xml version="1.0" encoding="utf-8"?>
<!-- Generator: Adobe Illustrator 16.0.0, SVG Export Plug-In . SVG Version: 6.00 Build 0)  -->
<!DOCTYPE svg PUBLIC "-//W3C//DTD SVG 1.1//EN" "http://www.w3.org/Graphics/SVG/1.1/DTD/svg11.dtd">
<svg version="1.1" id="Layer_1" xmlns="http://www.w3.org/2000/svg" xmlns:xlink="http://www.w3.org/1999/xlink" x="0px" y="0px"
	 width="377.333px" height="108.667px" viewBox="50.667 72.167 377.333 108.667"
	 enable-background="new 50.667 72.167 377.333 108.667" xml:space="preserve">
<g fill="#ffffff">
	<g enable-background="new    ">
		<path d="M58.472,115.14c0-3.899,0.734-7.74,2.205-11.52c1.469-3.78,3.614-7.169,6.435-10.17c2.819-3,6.239-5.43,10.26-7.29
			c4.019-1.859,8.609-2.79,13.77-2.79c6.179,0,11.534,1.275,16.065,3.825c4.53,2.551,7.905,5.926,10.125,10.125l-13.41,9.54
			c-0.601-1.56-1.395-2.85-2.385-3.87c-0.99-1.02-2.085-1.83-3.285-2.431c-1.201-0.599-2.445-1.02-3.735-1.26
			c-1.291-0.239-2.535-0.36-3.735-0.36c-2.52,0-4.695,0.495-6.525,1.485c-1.831,0.99-3.33,2.281-4.5,3.87
			c-1.17,1.591-2.041,3.391-2.61,5.4c-0.571,2.011-0.855,4.005-0.855,5.984c0,2.221,0.329,4.352,0.99,6.391
			c0.66,2.04,1.62,3.84,2.88,5.399c1.26,1.562,2.804,2.806,4.635,3.735c1.83,0.931,3.884,1.395,6.165,1.395
			c1.199,0,2.43-0.135,3.69-0.404c1.26-0.271,2.475-0.721,3.645-1.351c1.17-0.63,2.219-1.439,3.15-2.43
			c0.93-0.99,1.665-2.205,2.205-3.646l14.31,8.551c-0.96,2.34-2.416,4.44-4.365,6.3c-1.951,1.86-4.171,3.42-6.66,4.68
			c-2.49,1.26-5.161,2.221-8.01,2.88c-2.851,0.66-5.625,0.99-8.325,0.99c-4.74,0-9.076-0.945-13.005-2.835
			c-3.931-1.89-7.321-4.395-10.17-7.515c-2.851-3.119-5.056-6.66-6.615-10.62C59.251,123.24,58.472,119.221,58.472,115.14z"/>
		<path d="M174.751,83.729v63.9h-17.55v-25.02h-21.42v25.02h-17.55v-63.9h17.55v23.58h21.42v-23.58H174.751z"/>
		<path d="M196.351,83.729h16.021l22.14,63.9h-17.82l-3.87-12.51h-17.01l-3.779,12.51h-17.911L196.351,83.729z M210.032,123.42
			l-5.671-19.8l-5.939,19.8H210.032z"/>
		<path d="M233.881,147.63v-63.9h29.34c3.119,0,5.998,0.646,8.639,1.936c2.641,1.291,4.906,2.97,6.795,5.04
			c1.891,2.069,3.375,4.44,4.455,7.109c1.08,2.671,1.621,5.355,1.621,8.056c0,3.721-0.811,7.186-2.43,10.395
			c-1.621,3.211-3.871,5.836-6.75,7.875l13.5,23.49H269.25L258,128.01h-6.57v19.62H233.881z M251.43,112.71h11.07
			c1.08,0,2.084-0.6,3.016-1.8c0.93-1.2,1.395-2.88,1.395-5.04c0-2.22-0.539-3.915-1.619-5.085s-2.16-1.755-3.24-1.755H251.43
			V112.71z"/>
		<path d="M288.69,147.63v-63.9h17.551v63.9H288.69z"/>
		<path d="M360.76,99.03h-18.07v48.6h-17.551v-48.6h-16.806V83.729h44.716L360.76,99.03z"/>
		<path d="M374.457,83.729l11.43,27.631l11.701-27.631h19.08l-22.051,42.75v21.15h-17.459V126.3l-21.691-42.57H374.457z"/>
	</g>
	<g enable-background="new    ">
		<path d="M242.262,155.229v17.4h-2.1v-21.3h1.619l14.101,17.729V151.36h2.101v21.27h-1.83L242.262,155.229z"/>
		<path d="M270.971,170.89c1.34,0,2.455-0.255,3.346-0.765c0.89-0.51,1.6-1.18,2.13-2.01c0.529-0.83,0.899-1.775,1.11-2.835
			c0.209-1.061,0.314-2.131,0.314-3.21v-10.74h2.1v10.74c0,1.439-0.16,2.805-0.479,4.095c-0.32,1.29-0.835,2.425-1.545,3.405
			c-0.71,0.979-1.636,1.76-2.775,2.34s-2.53,0.87-4.17,0.87c-1.68,0-3.095-0.305-4.245-0.915s-2.074-1.415-2.775-2.415
			c-0.699-1-1.199-2.141-1.5-3.42c-0.299-1.28-0.449-2.6-0.449-3.96v-10.74h2.07v10.74c0,1.12,0.109,2.21,0.33,3.27
			c0.219,1.061,0.594,2,1.125,2.82c0.529,0.82,1.234,1.48,2.114,1.979C268.551,170.64,269.652,170.89,270.971,170.89z"/>
		<path d="M299.112,153.189h-7.59v19.44h-2.101v-19.44h-7.591v-1.859h17.281V153.189z"/>
		<path d="M301.301,172.63v-21.3h2.1v21.3H301.301z"/>
		<path d="M306.34,161.83c0-1.28,0.225-2.555,0.676-3.825c0.449-1.27,1.104-2.404,1.965-3.405c0.859-1,1.92-1.814,3.18-2.444
			c1.26-0.631,2.689-0.945,4.29-0.945c1.899,0,3.524,0.431,4.875,1.29c1.351,0.86,2.345,1.979,2.985,3.36l-1.65,1.02
			c-0.34-0.7-0.756-1.29-1.245-1.77c-0.49-0.48-1.015-0.87-1.575-1.171c-0.561-0.3-1.14-0.515-1.74-0.645
			c-0.6-0.13-1.189-0.195-1.77-0.195c-1.28,0-2.41,0.261-3.391,0.78c-0.979,0.521-1.805,1.2-2.475,2.04s-1.175,1.785-1.515,2.835
			c-0.341,1.05-0.511,2.115-0.511,3.195c0,1.18,0.205,2.31,0.615,3.39s0.971,2.035,1.68,2.865c0.711,0.83,1.551,1.49,2.521,1.979
			c0.97,0.49,2.025,0.735,3.165,0.735c0.6,0,1.215-0.075,1.846-0.225c0.629-0.15,1.239-0.391,1.83-0.721
			c0.589-0.33,1.135-0.739,1.635-1.229s0.92-1.085,1.26-1.785l1.74,0.9c-0.341,0.8-0.82,1.505-1.44,2.114
			c-0.62,0.61-1.31,1.125-2.069,1.545c-0.761,0.42-1.566,0.74-2.416,0.96c-0.85,0.221-1.685,0.33-2.504,0.33
			c-1.461,0-2.801-0.319-4.021-0.96c-1.22-0.64-2.271-1.475-3.15-2.505c-0.88-1.029-1.565-2.199-2.055-3.51
			C306.585,164.525,306.34,163.19,306.34,161.83z"/>
		<path d="M327.34,172.63v-21.27h2.1v12.359l11.73-12.39h2.311l-8.701,9.359l9.15,11.94h-2.31l-8.16-10.71l-4.021,4.17v6.54H327.34z
			"/>
		<path d="M359.949,170.77v1.86h-14.31v-21.3h14.04v1.859H347.74v7.681h10.41v1.77h-10.41v8.13H359.949z"/>
		<path d="M378.039,153.189h-7.59v19.44h-2.1v-19.44h-7.59v-1.859h17.279V153.189z"/>
		<path d="M392.68,155.32c-0.602-0.68-1.4-1.23-2.4-1.65s-2.141-0.63-3.42-0.63c-1.881,0-3.25,0.355-4.109,1.064
			c-0.861,0.711-1.291,1.676-1.291,2.896c0,0.641,0.115,1.165,0.346,1.575c0.229,0.41,0.584,0.765,1.064,1.064
			s1.096,0.561,1.846,0.78c0.75,0.221,1.635,0.44,2.654,0.66c1.141,0.24,2.164,0.51,3.074,0.81s1.686,0.675,2.326,1.125
			c0.639,0.45,1.129,0.995,1.469,1.635c0.34,0.641,0.512,1.44,0.512,2.4c0,0.98-0.191,1.83-0.57,2.55
			c-0.381,0.721-0.91,1.32-1.59,1.8c-0.682,0.48-1.49,0.836-2.432,1.065c-0.939,0.229-1.969,0.345-3.09,0.345
			c-3.299,0-6.148-1.029-8.549-3.09l1.049-1.71c0.381,0.4,0.836,0.78,1.365,1.14c0.529,0.36,1.121,0.676,1.77,0.945
			c0.65,0.271,1.346,0.48,2.086,0.63c0.74,0.15,1.52,0.226,2.34,0.226c1.699,0,3.025-0.305,3.975-0.915
			c0.951-0.61,1.426-1.535,1.426-2.775c0-0.66-0.135-1.215-0.404-1.665c-0.271-0.45-0.676-0.84-1.217-1.17
			c-0.539-0.33-1.209-0.615-2.01-0.854c-0.799-0.24-1.73-0.48-2.789-0.721c-1.121-0.26-2.1-0.529-2.939-0.81
			c-0.842-0.28-1.551-0.63-2.131-1.05s-1.016-0.925-1.305-1.516c-0.291-0.59-0.436-1.314-0.436-2.175
			c0-0.979,0.186-1.854,0.555-2.625c0.371-0.77,0.895-1.41,1.576-1.92c0.68-0.51,1.479-0.9,2.398-1.17
			c0.92-0.271,1.941-0.405,3.061-0.405c1.42,0,2.686,0.216,3.795,0.646c1.111,0.43,2.115,1.035,3.016,1.814L392.68,155.32z"/>
	</g>
</g>
</svg>
