<?xml version="1.0" encoding="utf-8"?>
<!-- Generator: Adobe Illustrator 16.0.0, SVG Export Plug-In . SVG Version: 6.00 Build 0)  -->
<!DOCTYPE svg PUBLIC "-//W3C//DTD SVG 1.1//EN" "http://www.w3.org/Graphics/SVG/1.1/DTD/svg11.dtd">
<svg version="1.1" id="Layer_1" xmlns="http://www.w3.org/2000/svg" xmlns:xlink="http://www.w3.org/1999/xlink" x="0px" y="0px"
	 width="471px" height="201.5px" viewBox="0 48.5 471 201.5" enable-background="new 0 48.5 471 201.5" xml:space="preserve">
<g fill="#ffffff">
	<g enable-background="new    ">
		<path d="M58.472,115.14c0-3.899,0.734-7.74,2.205-11.52c1.469-3.78,3.614-7.169,6.435-10.17c2.819-3,6.239-5.43,10.26-7.29
			c4.019-1.859,8.609-2.79,13.77-2.79c6.179,0,11.534,1.275,16.065,3.825c4.53,2.551,7.905,5.926,10.125,10.125l-13.41,9.54
			c-0.601-1.56-1.395-2.85-2.385-3.87c-0.99-1.02-2.085-1.83-3.285-2.431c-1.201-0.599-2.445-1.02-3.735-1.26
			c-1.291-0.239-2.535-0.36-3.735-0.36c-2.52,0-4.695,0.495-6.525,1.485c-1.831,0.99-3.33,2.281-4.5,3.87
			c-1.17,1.591-2.041,3.391-2.61,5.4c-0.571,2.011-0.855,4.005-0.855,5.984c0,2.221,0.329,4.352,0.99,6.391
			c0.66,2.04,1.62,3.84,2.88,5.399c1.26,1.562,2.804,2.806,4.635,3.735c1.83,0.931,3.884,1.395,6.165,1.395
			c1.199,0,2.43-0.135,3.69-0.404c1.26-0.271,2.475-0.721,3.645-1.351c1.17-0.63,2.219-1.439,3.15-2.43
			c0.93-0.99,1.665-2.205,2.205-3.646l14.31,8.551c-0.96,2.34-2.416,4.44-4.365,6.3c-1.951,1.86-4.171,3.42-6.66,4.68
			c-2.49,1.26-5.161,2.221-8.01,2.88c-2.851,0.66-5.625,0.99-8.325,0.99c-4.74,0-9.076-0.945-13.005-2.835
			c-3.931-1.89-7.321-4.395-10.17-7.515c-2.851-3.119-5.056-6.66-6.615-10.62C59.252,123.24,58.472,119.221,58.472,115.14z"/>
		<path d="M174.752,83.729v63.9h-17.55v-25.02h-21.42v25.02h-17.55v-63.9h17.55v23.58h21.42v-23.58H174.752z"/>
		<path d="M196.352,83.729h16.021l22.14,63.9h-17.82l-3.87-12.51h-17.01l-3.779,12.51h-17.911L196.352,83.729z M210.032,123.42
			l-5.671-19.8l-5.939,19.8H210.032z"/>
		<path d="M233.881,147.63v-63.9h29.34c3.119,0,5.999,0.646,8.64,1.936c2.64,1.291,4.905,2.97,6.795,5.04
			c1.891,2.069,3.375,4.44,4.455,7.109c1.08,2.671,1.62,5.355,1.62,8.056c0,3.721-0.81,7.186-2.43,10.395
			c-1.62,3.211-3.87,5.836-6.75,7.875l13.5,23.49h-19.8l-11.25-19.62h-6.57v19.62H233.881z M251.431,112.71h11.07
			c1.08,0,2.084-0.6,3.015-1.8c0.93-1.2,1.395-2.88,1.395-5.04c0-2.22-0.539-3.915-1.619-5.085s-2.16-1.755-3.24-1.755h-10.62
			V112.71z"/>
		<path d="M288.691,147.63v-63.9h17.55v63.9H288.691z"/>
		<path d="M361.049,99.03H342.69v48.6h-17.551v-48.6H308.69V83.729h44.394L361.049,99.03z"/>
		<path d="M374.458,83.729l11.43,27.631l11.7-27.631h19.08l-22.05,42.75v21.15h-17.46V126.3l-21.69-42.57H374.458z"/>
	</g>
	<g enable-background="new    ">
		<path d="M242.262,155.229v17.4h-2.1v-21.3h1.619l14.101,17.729V151.36h2.101v21.27h-1.83L242.262,155.229z"/>
		<path d="M270.971,170.89c1.34,0,2.455-0.255,3.346-0.765c0.89-0.51,1.6-1.18,2.13-2.01c0.529-0.83,0.899-1.775,1.11-2.835
			c0.209-1.061,0.314-2.131,0.314-3.21v-10.74h2.1v10.74c0,1.439-0.16,2.805-0.479,4.095c-0.32,1.29-0.835,2.425-1.545,3.405
			c-0.71,0.979-1.636,1.76-2.775,2.34s-2.53,0.87-4.17,0.87c-1.68,0-3.095-0.305-4.245-0.915s-2.074-1.415-2.775-2.415
			c-0.699-1-1.199-2.141-1.5-3.42c-0.299-1.28-0.449-2.6-0.449-3.96v-10.74h2.07v10.74c0,1.12,0.109,2.21,0.33,3.27
			c0.219,1.061,0.594,2,1.125,2.82c0.529,0.82,1.234,1.48,2.114,1.979C268.551,170.64,269.652,170.89,270.971,170.89z"/>
		<path d="M299.112,153.189h-7.59v19.44h-2.101v-19.44h-7.591v-1.859h17.281V153.189z"/>
		<path d="M301.301,172.63v-21.3h2.1v21.3H301.301z"/>
		<path d="M306.34,161.83c0-1.28,0.225-2.555,0.676-3.825c0.449-1.27,1.104-2.404,1.965-3.405c0.859-1,1.92-1.814,3.18-2.444
			c1.26-0.631,2.689-0.945,4.29-0.945c1.899,0,3.524,0.431,4.875,1.29c1.351,0.86,2.345,1.979,2.985,3.36l-1.65,1.02
			c-0.34-0.7-0.756-1.29-1.245-1.77c-0.49-0.48-1.015-0.87-1.575-1.171c-0.561-0.3-1.14-0.515-1.74-0.645
			c-0.6-0.13-1.189-0.195-1.77-0.195c-1.28,0-2.41,0.261-3.391,0.78c-0.979,0.521-1.805,1.2-2.475,2.04s-1.175,1.785-1.515,2.835
			c-0.341,1.05-0.511,2.115-0.511,3.195c0,1.18,0.205,2.31,0.615,3.39s0.971,2.035,1.68,2.865c0.711,0.83,1.551,1.49,2.521,1.979
			c0.97,0.49,2.025,0.735,3.165,0.735c0.6,0,1.215-0.075,1.846-0.225c0.629-0.15,1.239-0.391,1.83-0.721
			c0.589-0.33,1.135-0.739,1.635-1.229s0.92-1.085,1.26-1.785l1.74,0.9c-0.341,0.8-0.82,1.505-1.44,2.114
			c-0.62,0.61-1.31,1.125-2.069,1.545c-0.761,0.42-1.566,0.74-2.416,0.96c-0.85,0.221-1.685,0.33-2.504,0.33
			c-1.461,0-2.801-0.319-4.021-0.96c-1.22-0.64-2.271-1.475-3.15-2.505c-0.88-1.029-1.565-2.199-2.055-3.51
			C306.585,164.525,306.34,163.19,306.34,161.83z"/>
		<path d="M327.34,172.63v-21.27h2.1v12.359l11.73-12.39h2.311l-8.701,9.359l9.15,11.94h-2.31l-8.16-10.71l-4.021,4.17v6.54H327.34z
			"/>
		<path d="M359.949,170.77v1.86h-14.31v-21.3h14.04v1.859H347.74v7.681h10.41v1.77h-10.41v8.13H359.949z"/>
		<path d="M378.039,153.189h-7.59v19.44h-2.1v-19.44h-7.59v-1.859h17.279V153.189z"/>
		<path d="M392.68,155.32c-0.602-0.68-1.4-1.23-2.4-1.65s-2.141-0.63-3.42-0.63c-1.881,0-3.25,0.355-4.109,1.064
			c-0.861,0.711-1.291,1.676-1.291,2.896c0,0.641,0.115,1.165,0.346,1.575c0.229,0.41,0.584,0.765,1.064,1.064
			s1.096,0.561,1.846,0.78c0.75,0.221,1.635,0.44,2.654,0.66c1.141,0.24,2.164,0.51,3.074,0.81s1.686,0.675,2.326,1.125
			c0.639,0.45,1.129,0.995,1.469,1.635c0.34,0.641,0.512,1.44,0.512,2.4c0,0.98-0.191,1.83-0.57,2.55
			c-0.381,0.721-0.91,1.32-1.59,1.8c-0.682,0.48-1.49,0.836-2.432,1.065c-0.939,0.229-1.969,0.345-3.09,0.345
			c-3.299,0-6.148-1.029-8.549-3.09l1.049-1.71c0.381,0.4,0.836,0.78,1.365,1.14c0.529,0.36,1.121,0.676,1.77,0.945
			c0.65,0.271,1.346,0.48,2.086,0.63c0.74,0.15,1.52,0.226,2.34,0.226c1.699,0,3.025-0.305,3.975-0.915
			c0.951-0.61,1.426-1.535,1.426-2.775c0-0.66-0.135-1.215-0.404-1.665c-0.271-0.45-0.676-0.84-1.217-1.17
			c-0.539-0.33-1.209-0.615-2.01-0.854c-0.799-0.24-1.73-0.48-2.789-0.721c-1.121-0.26-2.1-0.529-2.939-0.81
			c-0.842-0.28-1.551-0.63-2.131-1.05s-1.016-0.925-1.305-1.516c-0.291-0.59-0.436-1.314-0.436-2.175
			c0-0.979,0.186-1.854,0.555-2.625c0.371-0.77,0.895-1.41,1.576-1.92c0.68-0.51,1.479-0.9,2.398-1.17
			c0.92-0.271,1.941-0.405,3.061-0.405c1.42,0,2.686,0.216,3.795,0.646c1.111,0.43,2.115,1.035,3.016,1.814L392.68,155.32z"/>
	</g>
</g>
<g fill="#ffffff" enable-background="new    ">
	<path d="M109.651,218v-14.2h5.16c1.16,0,2.176,0.188,3.05,0.561c0.873,0.373,1.603,0.88,2.19,1.52s1.027,1.39,1.32,2.25
		c0.293,0.86,0.44,1.777,0.44,2.75c0,1.08-0.164,2.057-0.49,2.93c-0.327,0.874-0.797,1.62-1.41,2.24
		c-0.614,0.62-1.35,1.101-2.21,1.44c-0.86,0.34-1.823,0.51-2.89,0.51H109.651z M119.031,210.88c0-0.68-0.093-1.307-0.28-1.88
		c-0.187-0.573-0.46-1.066-0.82-1.48c-0.36-0.413-0.803-0.732-1.33-0.96c-0.527-0.227-1.124-0.34-1.79-0.34h-2.4v9.36h2.4
		c0.68,0,1.283-0.12,1.81-0.36c0.526-0.239,0.966-0.569,1.32-0.989c0.353-0.421,0.623-0.917,0.81-1.49
		C118.937,212.167,119.031,211.547,119.031,210.88z"/>
	<path d="M125.97,218v-14.2h2.76V218H125.97z"/>
	<path d="M143.55,216.4c-1.133,1.133-2.453,1.699-3.96,1.699c-0.933,0-1.81-0.187-2.63-0.56s-1.533-0.887-2.14-1.54
		s-1.087-1.423-1.44-2.31c-0.354-0.887-0.53-1.844-0.53-2.87c0-0.974,0.176-1.891,0.53-2.75c0.353-0.86,0.84-1.613,1.46-2.261
		c0.62-0.646,1.35-1.159,2.19-1.54c0.84-0.38,1.753-0.569,2.74-0.569c1.333,0,2.477,0.28,3.43,0.84c0.953,0.56,1.67,1.313,2.15,2.26
		l-2.06,1.521c-0.36-0.707-0.863-1.247-1.51-1.62c-0.646-0.373-1.35-0.561-2.11-0.561c-0.6,0-1.15,0.127-1.65,0.38
		c-0.5,0.254-0.927,0.601-1.28,1.04c-0.353,0.44-0.626,0.947-0.82,1.521s-0.29,1.18-0.29,1.82c0,0.666,0.106,1.29,0.32,1.869
		c0.213,0.58,0.506,1.084,0.88,1.511c0.373,0.427,0.816,0.763,1.33,1.01c0.513,0.247,1.07,0.37,1.67,0.37
		c1.373,0,2.613-0.646,3.72-1.94v-1h-2.86v-2.02h5.14v7.3h-2.28V216.4z"/>
	<path d="M150.19,218v-14.2h2.76V218H150.19z"/>
	<path d="M168.53,206.22h-4.54V218h-2.74v-11.78h-4.54v-2.42h11.82V206.22z"/>
	<path d="M174.93,203.8h2.44l5.4,14.2h-2.84l-1.32-3.54h-4.96l-1.3,3.54h-2.84L174.93,203.8z M178.11,212.52l-1.96-5.579
		l-2.04,5.579H178.11z"/>
	<path d="M186.33,218v-14.2h2.76v11.78h7.24V218H186.33z"/>
	<path d="M206.27,218v-14.2h9.54v2.42h-6.78v3.66h5.64v2.24h-5.64V218H206.27z"/>
	<path d="M225.75,215.66c0.653,0,1.203-0.133,1.65-0.4c0.447-0.267,0.807-0.613,1.08-1.04c0.273-0.427,0.467-0.916,0.58-1.47
		c0.113-0.553,0.17-1.123,0.17-1.71v-7.24h2.74v7.24c0,0.974-0.117,1.887-0.35,2.74c-0.233,0.854-0.6,1.6-1.1,2.239
		c-0.5,0.641-1.144,1.147-1.93,1.521s-1.727,0.56-2.82,0.56c-1.133,0-2.097-0.196-2.89-0.59c-0.793-0.393-1.437-0.913-1.93-1.56
		c-0.494-0.646-0.85-1.396-1.07-2.25c-0.22-0.854-0.33-1.74-0.33-2.66v-7.24h2.76v7.24c0,0.6,0.057,1.177,0.17,1.729
		c0.113,0.554,0.307,1.044,0.58,1.471c0.273,0.427,0.63,0.77,1.07,1.029C224.57,215.53,225.11,215.66,225.75,215.66z"/>
	<path d="M239.51,208.9v9.1h-2.76v-14.2h2.139l7.4,9.32v-9.3h2.76V218h-2.24L239.51,208.9z"/>
	<path d="M254.01,218v-14.2h5.158c1.16,0,2.178,0.188,3.051,0.561s1.604,0.88,2.189,1.52c0.588,0.64,1.027,1.39,1.32,2.25
		s0.439,1.777,0.439,2.75c0,1.08-0.162,2.057-0.488,2.93c-0.328,0.874-0.797,1.62-1.41,2.24s-1.352,1.101-2.211,1.44
		s-1.822,0.51-2.891,0.51H254.01z M263.389,210.88c0-0.68-0.094-1.307-0.279-1.88c-0.188-0.573-0.461-1.066-0.82-1.48
		c-0.359-0.413-0.803-0.732-1.33-0.96c-0.527-0.227-1.123-0.34-1.791-0.34h-2.398v9.36h2.398c0.682,0,1.283-0.12,1.811-0.36
		c0.527-0.239,0.967-0.569,1.32-0.989c0.354-0.421,0.623-0.917,0.811-1.49C263.295,212.167,263.389,211.547,263.389,210.88z"/>
	<path d="M270.33,218v-14.2h6.279c0.652,0,1.256,0.137,1.811,0.41c0.553,0.273,1.029,0.634,1.43,1.08
		c0.4,0.447,0.713,0.953,0.939,1.52c0.227,0.567,0.34,1.138,0.34,1.71c0,0.921-0.23,1.758-0.689,2.511
		c-0.461,0.753-1.084,1.297-1.871,1.63l3.24,5.34h-3.1l-2.9-4.76h-2.719V218H270.33z M273.09,210.82h3.459
		c0.254,0,0.49-0.061,0.711-0.181c0.219-0.12,0.41-0.283,0.57-0.489c0.158-0.207,0.285-0.45,0.379-0.73s0.141-0.58,0.141-0.9
		c0-0.333-0.055-0.64-0.16-0.92c-0.107-0.279-0.25-0.522-0.43-0.729s-0.387-0.366-0.621-0.48c-0.232-0.112-0.469-0.17-0.709-0.17
		h-3.34V210.82z"/>
	<path d="M289.449,203.8h2.439l5.4,14.2h-2.84l-1.32-3.54h-4.959l-1.301,3.54h-2.84L289.449,203.8z M292.629,212.52l-1.959-5.579
		l-2.041,5.579H292.629z"/>
	<path d="M300.85,218v-14.2h2.76V218H300.85z"/>
	<path d="M317.03,207.52c-0.094-0.093-0.264-0.22-0.512-0.38c-0.246-0.159-0.547-0.316-0.898-0.47
		c-0.354-0.153-0.738-0.283-1.15-0.39c-0.414-0.106-0.834-0.16-1.26-0.16c-0.76,0-1.328,0.14-1.701,0.42s-0.559,0.674-0.559,1.18
		c0,0.294,0.068,0.537,0.209,0.73s0.344,0.363,0.609,0.51c0.268,0.146,0.604,0.28,1.012,0.4c0.406,0.12,0.875,0.246,1.408,0.38
		c0.693,0.187,1.324,0.387,1.891,0.6c0.566,0.214,1.047,0.48,1.439,0.8c0.395,0.32,0.697,0.704,0.91,1.15
		c0.213,0.447,0.32,0.997,0.32,1.65c0,0.76-0.143,1.409-0.43,1.949s-0.674,0.978-1.16,1.311s-1.047,0.577-1.68,0.729
		c-0.633,0.153-1.297,0.23-1.99,0.23c-1.066,0-2.119-0.16-3.16-0.48c-1.039-0.319-1.973-0.772-2.799-1.359l1.219-2.38
		c0.121,0.119,0.336,0.276,0.65,0.47c0.313,0.193,0.684,0.387,1.109,0.58c0.428,0.193,0.9,0.356,1.42,0.49
		c0.521,0.133,1.055,0.199,1.602,0.199c1.52,0,2.279-0.486,2.279-1.46c0-0.307-0.088-0.566-0.26-0.779
		c-0.174-0.214-0.42-0.4-0.74-0.561s-0.707-0.307-1.16-0.439c-0.453-0.134-0.961-0.28-1.52-0.44c-0.68-0.187-1.271-0.39-1.771-0.61
		c-0.5-0.22-0.916-0.479-1.25-0.779c-0.332-0.301-0.582-0.646-0.75-1.04c-0.166-0.394-0.25-0.863-0.25-1.41
		c0-0.72,0.135-1.36,0.4-1.92c0.268-0.561,0.637-1.026,1.111-1.4c0.473-0.373,1.021-0.656,1.648-0.85s1.301-0.29,2.021-0.29
		c1,0,1.92,0.156,2.76,0.47s1.572,0.684,2.199,1.11L317.03,207.52z"/>
	<path d="M322.83,218v-14.2h2.76V218H322.83z"/>
	<path d="M333.309,208.9v9.1h-2.76v-14.2h2.141l7.398,9.32v-9.3h2.762V218h-2.24L333.309,208.9z"/>
	<path d="M357.668,216.4c-1.133,1.133-2.453,1.699-3.959,1.699c-0.934,0-1.811-0.187-2.631-0.56s-1.533-0.887-2.139-1.54
		c-0.607-0.653-1.088-1.423-1.441-2.31s-0.529-1.844-0.529-2.87c0-0.974,0.176-1.891,0.529-2.75c0.354-0.86,0.84-1.613,1.461-2.261
		c0.619-0.646,1.35-1.159,2.189-1.54c0.84-0.38,1.754-0.569,2.74-0.569c1.334,0,2.477,0.28,3.43,0.84s1.67,1.313,2.15,2.26
		l-2.061,1.521c-0.359-0.707-0.863-1.247-1.51-1.62s-1.35-0.561-2.109-0.561c-0.6,0-1.15,0.127-1.65,0.38
		c-0.5,0.254-0.928,0.601-1.279,1.04c-0.354,0.44-0.627,0.947-0.82,1.521s-0.291,1.18-0.291,1.82c0,0.666,0.107,1.29,0.32,1.869
		c0.213,0.58,0.506,1.084,0.881,1.511c0.373,0.427,0.816,0.763,1.33,1.01c0.512,0.247,1.068,0.37,1.67,0.37
		c1.373,0,2.613-0.646,3.719-1.94v-1h-2.859v-2.02h5.141v7.3h-2.281V216.4z"/>
</g>
</svg>
